<?xml version="1.0" encoding="utf-8"?>
<!-- Generator: Adobe Illustrator 16.0.4, SVG Export Plug-In . SVG Version: 6.00 Build 0)  -->
<!DOCTYPE svg PUBLIC "-//W3C//DTD SVG 1.1//EN" "http://www.w3.org/Graphics/SVG/1.1/DTD/svg11.dtd">
<svg version="1.1" id="Layer_1" xmlns="http://www.w3.org/2000/svg" xmlns:xlink="http://www.w3.org/1999/xlink" x="0px" y="0px"
	 width="100px" height="100px" viewBox="0 0 100 100" enable-background="new 0 0 100 100" xml:space="preserve">
	 <circle  fill="#FFFFFF" stroke="#FFFFFF" stroke-width="2" cx="32.066" cy="67.126" r="3.524"/>
	<circle  fill="#FFFFFF" stroke="#FFFFFF" stroke-width="2" cx="67.504" cy="67.126" r="3.524"/>
<path fill="#FFFFFF" stroke="#FFFFFF" stroke-width="2" d="M58.807,76.025l-1.645-1.306c0.354-0.767,0.557-1.614,0.557-2.513
	c0-0.869-0.189-1.689-0.521-2.438l1.68-1.398c0.696-0.578,0.791-1.613,0.212-2.309c-0.58-0.694-1.613-0.791-2.309-0.211L55.1,67.248
	c-0.529-0.362-1.119-0.639-1.752-0.818v-2.197c0-0.906-0.732-1.642-1.639-1.642s-1.639,0.734-1.639,1.642v2.197
	c-0.604,0.172-1.17,0.432-1.681,0.771l-1.74-1.381c-0.709-0.562-1.74-0.443-2.303,0.265c-0.562,0.71-0.444,1.741,0.265,2.304
	l1.645,1.307c-0.354,0.765-0.558,1.615-0.558,2.512c0,0.705,0.128,1.378,0.351,2.006l-1.744,1.452
	c-0.696,0.577-0.791,1.61-0.212,2.306c0.325,0.393,0.791,0.592,1.262,0.592c0.369,0,0.741-0.125,1.047-0.379l1.551-1.289
	c0.617,0.494,1.334,0.867,2.116,1.09v2.199c0,0.905,0.733,1.641,1.639,1.641c0.905,0,1.64-0.734,1.64-1.641v-2.199
	c0.604-0.17,1.17-0.43,1.68-0.771l1.74,1.383c0.303,0.237,0.662,0.354,1.019,0.354c0.483,0,0.962-0.213,1.286-0.619
	C59.635,77.621,59.516,76.59,58.807,76.025z M49.611,73.936c-0.059-0.127-0.129-0.252-0.223-0.365
	c-0.021-0.024-0.047-0.043-0.068-0.066c-0.21-0.387-0.341-0.824-0.341-1.295c0-0.618,0.214-1.184,0.563-1.643
	c0.07-0.062,0.14-0.125,0.199-0.198c0.031-0.039,0.052-0.081,0.079-0.123c0.492-0.474,1.157-0.769,1.891-0.769
	c1.507,0,2.732,1.227,2.732,2.731c0,0.603-0.201,1.153-0.532,1.604c-0.083,0.07-0.16,0.147-0.229,0.237
	c-0.031,0.038-0.052,0.08-0.078,0.122c-0.492,0.473-1.158,0.77-1.893,0.77C50.861,74.941,50.112,74.544,49.611,73.936z"/>
<g>
	<path fill="#FFFFFF" stroke="#FFFFFF" stroke-width="2" d="M52.473,62.896c-5.649,0-10.625-3.514-12.577-8.707
		c-1.832,0.896-3.839,1.365-5.884,1.365c-7.417,0-13.452-6.036-13.452-13.453c0-7.418,6.034-13.452,13.452-13.452
		c1.3,0,2.58,0.187,3.82,0.556c1.802-5.487,6.878-9.215,12.764-9.215c2.854,0,5.639,0.914,7.934,2.59
		c2.861-1.697,6.107-2.59,9.443-2.59c10.229,0,18.551,8.321,18.551,18.55s-8.322,18.553-18.551,18.553
		c-1.365,0-2.748-0.16-4.119-0.477C61.396,60.512,57.116,62.896,52.473,62.896z M40.584,51.286c0.146,0,0.294,0.026,0.434,0.082
		c0.35,0.139,0.612,0.438,0.705,0.803c1.248,4.931,5.668,8.375,10.75,8.375c4.088,0,7.834-2.239,9.778-5.844
		c0.261-0.483,0.821-0.724,1.353-0.574c1.455,0.408,2.924,0.615,4.369,0.615c8.934,0,16.201-7.269,16.201-16.203
		s-7.268-16.201-16.201-16.201c-3.158,0-6.228,0.918-8.873,2.655c-0.434,0.283-1,0.251-1.397-0.08
		c-1.991-1.66-4.515-2.575-7.106-2.575c-5.221,0-9.67,3.557-10.82,8.649c-0.076,0.336-0.296,0.623-0.602,0.782
		c-0.307,0.16-0.668,0.178-0.987,0.047c-1.336-0.544-2.741-0.819-4.174-0.819c-6.122,0-11.102,4.981-11.102,11.104
		c0,6.121,4.98,11.103,11.102,11.103c2.101,0,4.155-0.602,5.941-1.736C40.145,51.348,40.364,51.286,40.584,51.286z"/>
</g>
</svg>
